<?xml version="1.0" ?><svg viewBox="0 0 64 64" xmlns="http://www.w3.org/2000/svg"><g data-name="Layer 91" id="Layer_91"><path d="M60.33,25.51,41,8.22a.5.5,0,1,0-.67.75L59.25,25.88,40.33,42.79a.5.5,0,0,0,.34.88.46.46,0,0,0,.33-.13L60.33,26.25a.49.49,0,0,0,0-.74Z"/><path d="M51.31,25.88a.48.48,0,0,0-.17-.37L31.81,8.22A.51.51,0,0,0,31,8.6V18h-.51c-14.87,0-27,14.63-27,32.61a40,40,0,0,0,.3,4.88.5.5,0,0,0,.46.44h0a.5.5,0,0,0,.49-.37c3.5-13,13.41-21.74,24.66-21.74.48,0,1,0,1.53.06v9.32a.49.49,0,0,0,.3.45.51.51,0,0,0,.54-.08L51.14,26.25A.48.48,0,0,0,51.31,25.88Zm-6.17.37L35.81,34.6a.51.51,0,0,1-.54.08.5.5,0,0,1-.3-.45v-4l-3.18-.29c-.82-.07-1.61-.11-2.35-.11A26.83,26.83,0,0,0,11.29,37a.51.51,0,0,1-.33.13.54.54,0,0,1-.3-.1.5.5,0,0,1-.16-.61C14.59,27.52,22.23,22,30.46,22l.88,0,3.63.13V17.54a.51.51,0,0,1,.3-.46.51.51,0,0,1,.54.09l9.33,8.34a.51.51,0,0,1,0,.74Z"/></g></svg>