<?xml version="1.0" ?><svg viewBox="0 0 64 64" xmlns="http://www.w3.org/2000/svg"><g data-name="Layer 93" id="Layer_93"><path d="M4.75,38.12,23.67,21.21a.51.51,0,0,0,0-.71.5.5,0,0,0-.71,0L3.67,37.75a.49.49,0,0,0,0,.74L23,55.78a.5.5,0,0,0,.33.12.51.51,0,0,0,.38-.16.51.51,0,0,0,0-.71Z"/><path d="M60.2,8.54a.5.5,0,0,0-1-.07c-3.5,13-13.41,21.74-24.66,21.74q-.73,0-1.53-.06V20.83a.49.49,0,0,0-.3-.45.51.51,0,0,0-.54.08L12.86,37.75a.49.49,0,0,0,0,.74L32.19,55.78a.54.54,0,0,0,.34.12.45.45,0,0,0,.2,0,.51.51,0,0,0,.3-.46V46h.51c14.87,0,27-14.63,27-32.61A40,40,0,0,0,60.2,8.54Zm-6.7,19C49.41,36.48,41.77,42,33.54,42l-.88,0L29,41.87v4.59a.51.51,0,0,1-.3.46.45.45,0,0,1-.2,0,.5.5,0,0,1-.34-.13l-9.33-8.34a.51.51,0,0,1,0-.74l9.33-8.35a.51.51,0,0,1,.54-.08.5.5,0,0,1,.3.45v4l3.18.29c.83.07,1.6.11,2.35.11A26.83,26.83,0,0,0,52.71,27a.5.5,0,0,1,.79.58Z"/></g></svg>